<svg xmlns="http://www.w3.org/2000/svg" xmlns:xlink="http://www.w3.org/1999/xlink" width="22.517" height="23.247" viewBox="0 0 16.888 17.435"><symbol id="a"><path d="M.265.325h.097C.437.325.445.309.445.28c0-.007 0-.019-.007-.049A.036.036 0 0 1 .435.22c0-.008.006-.012.012-.012.01 0 .01.003.015.021l.055.217A.051.051 0 0 1 .52.462C.52.464.518.473.508.473S.497.468.493.452C.472.374.449.356.364.356H.273L.337.61c.009.035.01.039.054.039h.132c.123 0 .146-.033.146-.11 0-.023 0-.027-.003-.054L.664.467c0-.005.003-.012.012-.012.011 0 .012.006.014.025l.02.173C.713.68.708.68.683.68h-.49c-.02 0-.03 0-.03-.02 0-.011.009-.011.028-.011.037 0 .065 0 .065-.018 0-.004 0-.006-.005-.024L.119.078C.109.039.107.031.028.031.011.031 0 .031 0 .012 0 0 .012 0 .015 0l.132.003L.296 0c.009 0 .021 0 .021.019 0 .008-.006.01-.006.011L.283.031c-.022 0-.027 0-.052.002C.202.036.199.04.199.053c0 .002 0 .008.004.023l.062.249z"/></symbol><use xlink:href="#a" transform="matrix(9.9626 0 0 -9.9626 2.372 13.948)" fill="#c83232"/><symbol id="b"><path d="M0 .683V.647h.024c.077 0 .079-.01.079-.045V.081C.103.047.101.036.024.036H0V0h.394c.184 0 .337.148.337.336 0 .19-.151.347-.337.347H0M.242.036C.195.036.194.044.194.075v.533c0 .031.001.039.048.039h.124A.255.255 0 0 0 .571.553.357.357 0 0 0 .628.336C.628.22.599.16.564.118A.262.262 0 0 0 .367.036H.242z"/></symbol><use xlink:href="#b" transform="matrix(6.9738 0 0 -6.9738 8.803 15.442)" fill="#c83232"/></svg>