<svg xmlns="http://www.w3.org/2000/svg" width="182.48" height="170.333" viewBox="0 0 136.86 127.75"><filter id="a"><feBlend mode="screen" in2="BackgroundImage" in="SourceGraphic"/></filter><g filter="url(#a)"><clipPath id="b"><path transform="matrix(1 0 0 -1 68.43 63.878)" d="M-96.379-91.822H96.379V91.822H-96.379z"/></clipPath><g clip-path="url(#b)"><path d="M136.462 63.878c0-18.787-15.23-34.016-34.016-34.016-18.787 0-34.016 15.23-34.016 34.016 0 18.787 15.23 34.016 34.016 34.016 18.787 0 34.016-15.23 34.016-34.016zm-34.016 0" fill="#ff7878" fill-opacity=".5"/><path d="M119.454 34.42c0-18.788-15.23-34.017-34.016-34.017-18.787 0-34.016 15.23-34.016 34.016 0 18.787 15.23 34.016 34.016 34.016 18.787 0 34.016-15.229 34.016-34.016zm-34.016 0" fill="#64b4ff" fill-opacity=".5"/><path d="M85.438 34.42c0-18.788-15.23-34.017-34.016-34.017-18.787 0-34.016 15.23-34.016 34.016 0 18.787 15.23 34.016 34.016 34.016 18.787 0 34.016-15.229 34.016-34.016zm-34.016 0" fill="#ff7878" fill-opacity=".5"/><path d="M68.43 63.878c0-18.787-15.23-34.016-34.016-34.016-18.787 0-34.016 15.23-34.016 34.016 0 18.787 15.23 34.016 34.016 34.016 18.787 0 34.016-15.23 34.016-34.016zm-34.016 0" fill="#64b4ff" fill-opacity=".5"/><path d="M85.438 93.337c0-18.787-15.23-34.016-34.016-34.016-18.787 0-34.016 15.229-34.016 34.016s15.23 34.016 34.016 34.016c18.787 0 34.016-15.23 34.016-34.016zm-34.016 0" fill="#ff7878" fill-opacity=".5"/><path d="M119.454 93.337c0-18.787-15.23-34.016-34.016-34.016-18.787 0-34.016 15.229-34.016 34.016s15.23 34.016 34.016 34.016c18.787 0 34.016-15.23 34.016-34.016zm-34.016 0" fill="#64b4ff" fill-opacity=".5"/><path d="M102.446 63.878c0-18.787-15.23-34.016-34.016-34.016-18.787 0-34.016 15.23-34.016 34.016 0 18.787 15.23 34.016 34.016 34.016 18.787 0 34.016-15.23 34.016-34.016zm-34.016 0" fill="#bf0040" fill-opacity=".15"/></g></g><path stroke-width=".797" stroke-miterlimit="10" fill="none" stroke="#000" d="M136.462 63.878c0-18.787-15.23-34.016-34.016-34.016-18.787 0-34.016 15.23-34.016 34.016 0 18.787 15.23 34.016 34.016 34.016 18.787 0 34.016-15.23 34.016-34.016zm-34.016 0"/><path stroke-width=".797" stroke-miterlimit="10" fill="none" stroke="#000" d="M119.454 34.42c0-18.788-15.23-34.017-34.016-34.017-18.787 0-34.016 15.23-34.016 34.016 0 18.787 15.23 34.016 34.016 34.016 18.787 0 34.016-15.229 34.016-34.016zm-34.016 0"/><path stroke-width=".797" stroke-miterlimit="10" fill="none" stroke="#000" d="M85.438 34.42c0-18.788-15.23-34.017-34.016-34.017-18.787 0-34.016 15.23-34.016 34.016 0 18.787 15.23 34.016 34.016 34.016 18.787 0 34.016-15.229 34.016-34.016zm-34.016 0"/><path stroke-width=".797" stroke-miterlimit="10" fill="none" stroke="#000" d="M68.43 63.878c0-18.787-15.23-34.016-34.016-34.016-18.787 0-34.016 15.23-34.016 34.016 0 18.787 15.23 34.016 34.016 34.016 18.787 0 34.016-15.23 34.016-34.016zm-34.016 0"/><path stroke-width=".797" stroke-miterlimit="10" fill="none" stroke="#000" d="M85.438 93.337c0-18.787-15.23-34.016-34.016-34.016-18.787 0-34.016 15.229-34.016 34.016s15.23 34.016 34.016 34.016c18.787 0 34.016-15.23 34.016-34.016zm-34.016 0"/><path stroke-width=".797" stroke-miterlimit="10" fill="none" stroke="#000" d="M119.454 93.337c0-18.787-15.23-34.016-34.016-34.016-18.787 0-34.016 15.229-34.016 34.016s15.23 34.016 34.016 34.016c18.787 0 34.016-15.23 34.016-34.016zm-34.016 0"/><path stroke-width=".797" stroke-miterlimit="10" fill="none" stroke="#000" d="M102.446 63.878c0-18.787-15.23-34.016-34.016-34.016-18.787 0-34.016 15.23-34.016 34.016 0 18.787 15.23 34.016 34.016 34.016 18.787 0 34.016-15.23 34.016-34.016zm-34.016 0"/></svg>
