<svg width="64" height="64" viewBox="0 0 64 64" xmlns="http://www.w3.org/2000/svg">
  <style>
    .bg { fill: #0f111a; }

    .grid {
      stroke: url(#gridGrad);
      stroke-width: 1;
      stroke-opacity: 0.3;
    }

    .sigil {
      stroke: url(#sigilGrad);
      stroke-width: 2;
      fill: none;
      stroke-linejoin: round;
      stroke-linecap: round;
      transform-origin: 32px 28px;
      animation: expand 5s ease-in-out infinite alternate;
    }

    .core {
      fill: url(#corePulse);
      animation: pulse 4s ease-in-out infinite;
    }

    .root {
      stroke: url(#rootGrad);
      stroke-width: 1.2;
      stroke-linecap: round;
      stroke-opacity: 0.6;
      stroke-dasharray: 8;
      animation: rootFlow 3s linear infinite;
    }

    .sprout {
      stroke: url(#sproutGrad);
      stroke-width: 1.5;
      fill: none;
      stroke-linecap: round;
      stroke-linejoin: round;
      animation: growUp 6s ease-in-out infinite alternate;
    }

    .halo {
      stroke: url(#haloGrad);
      stroke-width: 2;
      fill: none;
      stroke-linecap: round;
      stroke-linejoin: round;
      opacity: 0.3;
      transform-origin: 32px 28px;
      animation: expandHalo 6s ease-in-out infinite;
    }

    @keyframes pulse {
      0%, 100% { r: 2.5; opacity: 1; }
      50% { r: 4; opacity: 0.3; }
    }

    @keyframes expand {
      0% { transform: scale(1); }
      100% { transform: scale(1.12); }
    }

    @keyframes rootFlow {
      0% { stroke-dashoffset: 0; }
      100% { stroke-dashoffset: 16; }
    }

    @keyframes growUp {
      0% { transform: scaleY(0); opacity: 0; }
      100% { transform: scaleY(1); opacity: 1; }
    }

    @keyframes expandHalo {
      0% { transform: scale(1); opacity: 0.2; }
      50% { transform: scale(1.3); opacity: 0.4; }
      100% { transform: scale(1); opacity: 0.2; }
    }
  </style>

  <rect class="bg" width="64" height="64" rx="12"/>

  <!-- Grid system -->
  <g class="grid">
    <line x1="16" y1="16" x2="48" y2="16"/>
    <line x1="16" y1="24" x2="48" y2="24"/>
    <line x1="16" y1="32" x2="48" y2="32"/>
    <line x1="16" y1="40" x2="48" y2="40"/>
    <line x1="16" y1="48" x2="48" y2="48"/>
    <line x1="16" y1="16" x2="16" y2="48"/>
    <line x1="24" y1="16" x2="24" y2="48"/>
    <line x1="32" y1="16" x2="32" y2="48"/>
    <line x1="40" y1="16" x2="40" y2="48"/>
    <line x1="48" y1="16" x2="48" y2="48"/>
  </g>

  <!-- Halo expansion to simulate cell activation -->
  <circle class="halo" cx="32" cy="28" r="12"/>

  <!-- Sigil glyph expanding -->
  <g class="sigil">
    <polygon points="32,20 36,28 32,36 28,28 32,20"/>
    <polygon points="28,28 32,36 36,28 32,20 28,28"/>
  </g>

  <!-- Fractal roots below -->
  <g class="root">
    <line x1="32" y1="28" x2="26" y2="40"/>
    <line x1="32" y1="28" x2="38" y2="40"/>
    <line x1="32" y1="28" x2="22" y2="36"/>
    <line x1="32" y1="28" x2="42" y2="36"/>
    <line x1="32" y1="28" x2="32" y2="44"/>
  </g>

  <!-- Above-ground sprout -->
  <path class="sprout" d="M32 28 C32 24, 30 22, 28 20 M32 28 C32 24, 34 22, 36 20"/>

  <!-- Central pulse -->
  <circle class="core" cx="32" cy="28" r="2.5"/>

  <defs>
    <linearGradient id="gridGrad" x1="16" y1="16" x2="48" y2="48" gradientUnits="userSpaceOnUse">
      <stop stop-color="#41e0ff"/>
      <stop offset="1" stop-color="#726bff"/>
    </linearGradient>

    <linearGradient id="sigilGrad" x1="28" y1="20" x2="36" y2="36" gradientUnits="userSpaceOnUse">
      <stop stop-color="#4fd1c5"/>
      <stop offset="1" stop-color="#a177ff"/>
    </linearGradient>

    <linearGradient id="rootGrad" x1="32" y1="28" x2="32" y2="44" gradientUnits="userSpaceOnUse">
      <stop stop-color="#4fd1c5"/>
      <stop offset="1" stop-color="#41e0ff"/>
    </linearGradient>

    <linearGradient id="sproutGrad" x1="28" y1="20" x2="36" y2="28" gradientUnits="userSpaceOnUse">
      <stop stop-color="#6fffbb"/>
      <stop offset="1" stop-color="#a1ffe1"/>
    </linearGradient>

    <linearGradient id="haloGrad" x1="20" y1="16" x2="44" y2="40" gradientUnits="userSpaceOnUse">
      <stop stop-color="#ffffff"/>
      <stop offset="1" stop-color="#ffffff" stop-opacity="0"/>
    </linearGradient>

    <radialGradient id="corePulse" cx="0.5" cy="0.5" r="0.5">
      <stop offset="0%" stop-color="#ffffff"/>
      <stop offset="100%" stop-color="#ffffff" stop-opacity="0"/>
    </radialGradient>
  </defs>
</svg>
