<svg xmlns="http://www.w3.org/2000/svg" width="181.413" height="169.267" viewBox="0 0 136.06 126.95"><filter id="a"><feBlend mode="screen" in2="BackgroundImage" in="SourceGraphic"/></filter><g filter="url(#a)"><clipPath id="b"><path transform="matrix(1 0 0 -1 68.031 63.476)" d="M-96.379-91.822H96.379V91.822H-96.379z"/></clipPath><g clip-path="url(#b)"><path d="M136.063 63.476c0-18.787-15.23-34.016-34.016-34.016-18.787 0-34.016 15.23-34.016 34.016 0 18.787 15.23 34.016 34.016 34.016 18.787 0 34.016-15.23 34.016-34.016zm-34.016 0" fill="#ff7878" fill-opacity=".5"/><path d="M119.055 34.017c0-18.787-15.23-34.016-34.016-34.016-18.787 0-34.016 15.23-34.016 34.016 0 18.787 15.23 34.016 34.016 34.016 18.787 0 34.016-15.229 34.016-34.016zm-34.016 0" fill="#64b4ff" fill-opacity=".5"/><path d="M85.04 34.017C85.04 15.23 69.81.001 51.022.001c-18.787 0-34.016 15.23-34.016 34.016 0 18.787 15.23 34.016 34.016 34.016 18.787 0 34.016-15.229 34.016-34.016zm-34.017 0" fill="#ff7878" fill-opacity=".5"/><path d="M68.031 63.476c0-18.787-15.23-34.016-34.016-34.016-18.787 0-34.016 15.23-34.016 34.016 0 18.787 15.23 34.016 34.016 34.016 18.787 0 34.016-15.23 34.016-34.016zm-34.016 0" fill="#64b4ff" fill-opacity=".5"/><path d="M85.04 92.935c0-18.787-15.23-34.016-34.017-34.016-18.787 0-34.016 15.229-34.016 34.016s15.23 34.016 34.016 34.016c18.787 0 34.016-15.23 34.016-34.016zm-34.017 0" fill="#ff7878" fill-opacity=".5"/><path d="M119.055 92.935c0-18.787-15.23-34.016-34.016-34.016-18.787 0-34.016 15.229-34.016 34.016s15.23 34.016 34.016 34.016c18.787 0 34.016-15.23 34.016-34.016zm-34.016 0" fill="#64b4ff" fill-opacity=".5"/><path d="M102.047 63.476c0-18.787-15.23-34.016-34.016-34.016-18.787 0-34.016 15.23-34.016 34.016 0 18.787 15.23 34.016 34.016 34.016 18.787 0 34.016-15.23 34.016-34.016zm-34.016 0" fill-opacity=".15"/></g></g></svg>