<svg width="64" height="64" viewBox="0 0 64 64" xmlns="http://www.w3.org/2000/svg">
  <rect width="64" height="64" rx="12" fill="#1b1e2e"/>

  <!-- Top book fold -->
  <path d="M16 44V24c0-1.2 1.2-2 2.4-1.4l13.6 6.8 13.6-6.8c1.2-.6 2.4.2 2.4 1.4v20"
        fill="none" stroke="url(#book)" stroke-width="2"/>

  <!-- Mirrored bottom book contour blending with branches -->
  <path d="M16 44c0 1.2 1.2 2 2.4 1.4l13.6-6.8 13.6 6.8c1.2 0.6 2.4-0.2 2.4-1.4"
        fill="none" stroke="url(#merge)" stroke-width="2"/>

  <!-- Downward light beam (incoming knowledge) -->
  <path d="M32 10v12" stroke="url(#beam)" stroke-width="2" stroke-linecap="round"/>
  <circle cx="32" cy="10" r="3" fill="url(#pulse)"/>

  <defs>
    <linearGradient id="book" x1="16" y1="24" x2="48" y2="44" gradientUnits="userSpaceOnUse">
      <stop stop-color="#41e0ff"/>
      <stop offset="1" stop-color="#726bff"/>
    </linearGradient>

    <linearGradient id="beam" x1="32" y1="10" x2="32" y2="22" gradientUnits="userSpaceOnUse">
      <stop stop-color="#726bff"/>
      <stop offset="1" stop-color="#41e0ff"/>
    </linearGradient>

    <linearGradient id="merge" x1="16" y1="44" x2="48" y2="52" gradientUnits="userSpaceOnUse">
      <stop stop-color="#41e0ff"/>
      <stop offset="1" stop-color="#726bff"/>
    </linearGradient>
    <radialGradient id="pulse" cx="0.5" cy="0.5" r="0.5">
      <stop offset="0%" stop-color="#41e0ff"/>
      <stop offset="100%" stop-color="#41e0ff" stop-opacity="0"/>
    </radialGradient>
  </defs>
</svg>
