<svg width="64" height="64" viewBox="0 0 64 64" xmlns="http://www.w3.org/2000/svg" style="isolation:isolate">
  <style>
    .aura {
      fill: url(#aura);
      transform-origin: center;
      animation: rotateAura 20s linear infinite;
    }
    .spiral {
      fill: none;
      stroke: url(#spiralGrad);
      stroke-width: 2.2;
      stroke-linecap: round;
      stroke-dasharray: 18 12;
      animation: flowSpiral 6s linear infinite;
    }
    .core {
      animation: pulseCore 2.8s ease-in-out infinite;
    }

    @keyframes rotateAura {
      from { transform: rotate(0deg); }
      to { transform: rotate(360deg); }
    }

    @keyframes flowSpiral {
      0% { stroke-dashoffset: 0; }
      100% { stroke-dashoffset: -60; }
    }

    @keyframes pulseCore {
      0%, 100% { r: 3; opacity: 1; }
      50% { r: 5; opacity: 0.3; }
    }
  </style>

  <!-- Background -->
  <rect width="64" height="64" rx="12" fill="#0f111a"/>

  <!-- Rotating aura -->
  <circle class="aura" cx="32" cy="32" r="24"/>

  <!-- Spiral arms -->
  <g transform="translate(32 32)">
    <path class="spiral" d="M0 0 C 4 -2, 6 -6, 4 -10 C 2 -12, -2 -12, -4 -10" transform="rotate(0)"/>
    <path class="spiral" d="M0 0 C 4 -2, 6 -6, 4 -10 C 2 -12, -2 -12, -4 -10" transform="rotate(120)"/>
    <path class="spiral" d="M0 0 C 4 -2, 6 -6, 4 -10 C 2 -12, -2 -12, -4 -10" transform="rotate(240)"/>
  </g>

  <!-- Central fusion node -->
  <circle class="core" cx="32" cy="32" r="3" fill="url(#corePulse)"/>

  <defs>
    <radialGradient id="aura" cx="32" cy="32" r="24" gradientUnits="userSpaceOnUse">
      <stop offset="0%" stop-color="#4fd1c5" stop-opacity="0.12"/>
      <stop offset="100%" stop-color="#41e0ff" stop-opacity="0"/>
    </radialGradient>

    <linearGradient id="spiralGrad" x1="-10" y1="-10" x2="10" y2="10" gradientUnits="userSpaceOnUse">
      <stop stop-color="#41e0ff"/>
      <stop offset="0.5" stop-color="#726bff"/>
      <stop offset="1" stop-color="#4fd1c5"/>
    </linearGradient>

    <radialGradient id="corePulse" cx="0.5" cy="0.5" r="0.5">
      <stop offset="0%" stop-color="#41e0ff"/>
      <stop offset="100%" stop-color="#41e0ff" stop-opacity="0"/>
    </radialGradient>
  </defs>
</svg>
